<?xml version="1.0" encoding="UTF-8"?>
<svg id="_ëÎÓÈ_4" data-name="ëÎÓÈ 4" xmlns="http://www.w3.org/2000/svg" xmlns:xlink="http://www.w3.org/1999/xlink" viewBox="0 0 850.83 850.83">
  <defs>
    <style>
      .cls-1 {
        clip-path: url(#clippath);
      }

      .cls-2 {
        fill: none;
      }

      .cls-2, .cls-3, .cls-4, .cls-5, .cls-6, .cls-7, .cls-8, .cls-9, .cls-10 {
        stroke-width: 0px;
      }

      .cls-3 {
        fill: url(#Dull_Brass);
      }

      .cls-4 {
        fill: #f7e8df;
      }

      .cls-5 {
        fill: #776351;
      }

      .cls-6 {
        fill: #4f3e2f;
      }

      .cls-7 {
        fill: #6d523e;
      }

      .cls-8 {
        fill: #535355;
      }

      .cls-9 {
        fill: #11100f;
      }

      .cls-10 {
        fill: #ddd7d3;
      }
    </style>
    <clipPath id="clippath">
      <circle class="cls-2" cx="425.41" cy="425.41" r="425.41"/>
    </clipPath>
    <linearGradient id="Dull_Brass" data-name="Dull Brass" x1="562.45" y1="394.55" x2="575.82" y2="379.91" gradientUnits="userSpaceOnUse">
      <stop offset="0" stop-color="#efc981"/>
      <stop offset=".19" stop-color="#e6c081"/>
      <stop offset=".6" stop-color="#c58511"/>
      <stop offset=".81" stop-color="#e4b76c"/>
      <stop offset=".87" stop-color="#eec687"/>
      <stop offset="1" stop-color="#f2e4ce"/>
    </linearGradient>
  </defs>
  <g class="cls-1">
    <rect class="cls-4" x="-64.65" y="-101.15" width="994.09" height="1227.31"/>
    <path class="cls-3" d="m558.46,384.26s0,.09.01.16c.21,2.4,1.66,4.09,2.19,4.7.39.46,4.52,5.28,9.16,3.68,2.4-.83,5.11-3.44,4.7-6.77-.32-2.56-2.38-4.74-5.17-5.38.33-.7.66-1.41.99-2.11.96.32,4.16,1.53,6.14,4.89.47.8,2.62,4.46,1.06,8.46-.12.29-1.37,3.36-4.62,4.78-4.48,1.96-10.38-.22-13.06-4.47-2.05-3.25-1.6-6.75-1.39-7.95Z"/>
    <path class="cls-8" d="m746.27,854.31c-19.48,42.79-29.22,64.19-38.23,75.09-25.43,30.77-70.9,55.01-252.75,54.33-154.56-.58-231.84-.87-271.64-35.43-47.36-41.12-60.71-102.22-87.4-224.4-7.41-33.94-9.83-55.68,0-77.95,13.35-30.24,44.44-50.52,133.97-75.14,97.92-26.92,146.88-40.38,214.51-37.86,156.1,5.81,348.09,89.44,353.06,183.95,1.14,21.7-16.41,60.27-51.53,137.41Z"/>
    <path class="cls-9" d="m678.5,597.54c-10.67,7.05-27.02,17.36-47.71,28.48-34.84,18.72-60.23,28.01-68.04,31.39-81.84,35.43-76.1,219.44-119.74,223.52-30.63,2.87-68.18-84.53-81.6-124.73-11.81-35.37-8.07-43.58-23.04-76.2-27.29-59.48-64-85.12-71.59-90.24-14.43-9.74-27.67-15.56-36.56-18.95,10.09-13.83,20.18-27.66,30.27-41.49,1.09-5.52,2.19-11.05,3.28-16.57,2.86-5.61,7.43-13.46,14.44-21.66,47.42-55.48,137.74-46.78,167.83-43.88,43.59,4.2,77.74,7.49,108.44,32.73,33.78,27.76,40.05,62.9,90.87,98.35,13.19,9.2,25.03,15.39,33.14,19.24Z"/>
    <ellipse class="cls-5" cx="427.23" cy="574.04" rx="123.55" ry="66.45"/>
    <path class="cls-7" d="m528.85,501.38c-3.54,66.79,17.64,82.86,5.08,106.32-18.07,33.74-79.33,33.02-104.59,32.72-15.59-.18-91.36.96-109.29-38.05-2.31-5.02-2.72-15.16-3.55-35.46-.99-24.08.78-33.94,2.43-70.99,1.82-40.84.07-40.5,2.73-44.98,17.08-28.82,68.68-26.38,107.69-24.54,38.11,1.8,85.1,4.02,99.26,32.27,5.36,10.7,1.64,16.4.25,42.71Z"/>
    <path class="cls-6" d="m534.32,442.92c-4.65,24.87-11.48,61.38-40.89,88.07-5.76,5.23-30.52,27.71-67.51,28.65-58.16,1.49-92.51-51.61-95.76-56.81-9.61-15.41-14.46-31.05-16.68-45,4.43,8.95,9.91,18.22,16.68,27.48,15.27,20.86,45.75,62.54,92.79,63.5,33.88.7,59.22-20.46,66.43-26.48,24.12-20.15,33.8-48.42,44.94-79.41Z"/>
    <path class="cls-7" d="m590.31,337.94c-.13,1.07-.3,1.98-.5,2.79-1.41,5.73-4.76,7.13-15.86,30.15-6.57,13.61-8.68,19.94-15.93,28.17-4.81,5.46-9.69,9.26-13.28,11.72-.32.21-.62.42-.92.61-1.82,7.47-4.81,18.5-9.5,31.54-11.14,30.99-20.83,59.26-44.94,79.41-7.21,6.02-32.55,27.18-66.43,26.48-47.04-.97-77.51-42.64-92.79-63.5-6.78-9.25-12.25-18.53-16.68-27.48-7.27-14.67-11.75-28.46-14.58-39.88-1.09-4.37-1.93-8.4-2.6-11.99-4.46-.97-10.84-3.08-16.2-8.27-5.91-5.69-7.17-11.79-10.57-25.35-6.31-25.17-8.72-31.03-9.51-36.71v-.02c-.24-1.69-.34-3.36-.34-5.52-.06-7.9-.18-26.34,7.81-29.04,3.92-1.33,9.27,1.32,14.63,6.65,3.01,2.99,6.01,6.81,8.78,11.25-1.34-3.07-10.93-26.08-12.55-57.27-1.39-26.76,3.1-59.54,23.73-90.92,4.65-7.08,46.49-68.41,121.06-68.02,41.17.21,84.18,19.21,108.38,53.03,19.09,26.69,22.05,56.45,26.52,101.47,1.83,18.42,2.12,34.63,1.84,47.66v.07c-.1,4.11-.24,7.89-.41,11.33.17-.33.34-.63.5-.94,7.88-14.45,14.04-14.41,15.37-14.31,9.08.66,17.12,20.29,14.99,36.9Z"/>
    <path class="cls-10" d="m510.49,717.29c-46.46,153.18-57.83,162.85-67.49,163.64-41,3.37-95.32-146.21-104.64-200.93-2.62-15.42-.84-35.14-13.48-55.03-4.19-6.6-12.87-17.92-18.11-36.19-1.75-6.11-2.63-11.29-3.1-14.74,4.29,8.43,11.76,20.68,24.34,31.97,29.48,26.49,65.36,28.34,94.81,29.86,27.07,1.4,60.79,3.05,93.77-17.81,14.74-9.32,24.6-20.28,30.55-27.97-8,29.31-20.38,73.56-36.65,127.2Z"/>
  </g>
</svg>