<?xml version="1.0" encoding="UTF-8"?>
<svg id="_ëÎÓÈ_4" data-name="ëÎÓÈ 4" xmlns="http://www.w3.org/2000/svg" xmlns:xlink="http://www.w3.org/1999/xlink" viewBox="0 0 850.43 870.05">
  <defs>
    <style>
      .cls-1 {
        clip-path: url(#clippath);
      }

      .cls-2 {
        fill: none;
      }

      .cls-2, .cls-3, .cls-4, .cls-5, .cls-6, .cls-7, .cls-8, .cls-9 {
        stroke-width: 0px;
      }

      .cls-3 {
        fill: #271815;
      }

      .cls-4 {
        fill: #6d523e;
      }

      .cls-5 {
        fill: #1e1715;
      }

      .cls-6 {
        fill: #ddd7d3;
      }

      .cls-7 {
        fill: #dbb7a5;
      }

      .cls-8 {
        fill: #916c66;
      }

      .cls-9 {
        fill: #8e6959;
      }
    </style>
    <clipPath id="clippath">
      <circle class="cls-2" cx="425.21" cy="444.84" r="425.21"/>
    </clipPath>
  </defs>
  <g class="cls-1">
    <rect class="cls-6" x="-63.43" y="-19.63" width="1084.07" height="1147.01"/>
    <path class="cls-5" d="m553.02,519.91c-4.98,11.7-3.54,20.19-4.36,28.85-.88,9.23-4.67,22.16-18.05,37.41-4.03-3.9-15.18-14.96-22.22-25.58-.82-1.24-2.28-3.43-3.91-6.5-2.9-5.45-4.86-10.72-6.2-15.42-1.05-3.65-1.73-6.97-2.18-9.77-.02-.06-.02-.11-.03-.17-12.21,7.18-35.71,18.78-67.39,20.94-34.86,2.35-62.42-7.88-77.85-15.39-1.62-9.58-4.17-16.48-7.32-23.72-3.06-7.07-6.67-14.46-10.53-24.95-8.8-23.97-12.44-46.76-13.11-70.91-.77-27.39,2.27-56.53,5.88-91.13,3.86-36.97,8.55-48.61,13.45-57.49,16.37-29.64,43.71-44.48,59.47-51.33,10.86,1.81,28.21,6.31,44.48,19.1,15.98,12.54,24.14,27.74,29.89,40.57,29.01,64.69,15.47,110.58,30.21,144.19,0,0,0,0,0,.02.9,2.07,1.91,4.09,3.05,6.07,0,0,.86,1.5,1.73,2.82,3.11,4.73,19.37,8.94,24,10.57,13.22,4.67,19.34,19.27,24.51,31.62,3.91,9.34,9.4,22.44,4.74,35.57-2.32,6.54-4.77,6.36-8.29,14.63Z"/>
    <path class="cls-8" d="m696.13,883.67c-38.15,42.94-72.05,9.52-254.08,32.38-89.19,11.2-188.02,32.66-261.58-8.43-12.49-6.97-19.43-13.06-24.44-18.48-22.31-24.1-18.38-47.72-18.74-168.59-.09-28.15-.36-48.06,12.76-68.1,11.45-17.48,27.17-26.02,39.63-32.35,6.81-3.46,13.5-6.82,20.12-10.08-.26,1.87-.57,3.81-.91,5.82-7.85,45.79-16.61,56.8-12.56,76.41,5.26,25.46,34.06,56.62,139.62,79.99-11.03-17.32-11.67-31.14-11.18-38.46,1.21-18.02,11.77-34.71,17.64-43.97,5.44-8.6,10.35-14.91,14.73-27.05,2.31-6.4,3.01-11.86,3.39-15.53.09-.84.16-1.58.22-2.22,1.2-11.87-1.42-20.8-4.38-29.12-.36-.99-.72-1.98-1.08-2.95-.94-2.59-1.88-5.16-2.7-7.76-3.57-11.33-3.55-19.12-2.67-26.84.03-.3.07-.61.11-.91.57-4.7,1.42-9.42,1.94-14.95.57-6.07.74-13.11-.3-22.16-.25-2.12-.52-4.12-.84-6.02,15.43,7.51,43,17.75,77.85,15.39,31.68-2.15,55.18-13.76,67.39-20.94,0,.06.01.11.03.17.45,2.8,1.12,6.11,2.17,9.77,1.34,4.7,3.31,9.96,6.2,15.41,2.56,4.81,5.24,8.62,7.86,11.74-1.47.79-2.97,1.55-4.5,2.29-2.18,1.06-4.41,2.07-6.71,3.01-15.66,6.5-33.96,10.51-53.76,11.22,12.01.88,31.59.78,54.11-6.51,1.98-.64,3.91-1.32,5.79-2.02.86-.32,1.71-.65,2.55-.98,2.23-.87,4.38-1.79,6.46-2.74,2.09,2.08,4.09,3.8,5.89,5.35-.99,1.42-1.93,2.88-2.85,4.38-1.18,1.95-2.31,3.98-3.33,6.07-1.19,2.4-2.27,4.88-3.19,7.45-.04.11-.08.25-.13.41-.4,1.45-1,4.88-1.87,10.49-.45,2.92-.97,6.44-1.58,10.58-.69,4.73-1.49,10.27-2.42,16.67-2.56,17.75-2.79,21.48-1.79,26.56,2.9,14.71,12.1,19.98,19.54,31.66,6.14,9.62,12.24,25.41,9.52,51.5,55.3-34.33,73.28-49.92,74.38-56.28,0-.04,0-.06.02-.13,1.34-7.22,15.08-10.13,17.4-10.82,9.95-2.93,22.47-27.31,27.25-57.09,11.49-.24,20.83.73,31.6,7.99,11.07,7.46,26.52,23.35,34.9,73.85,7.81,47.03,22.16,133.5-23.51,184.93Z"/>
    <path class="cls-4" d="m360.75,645.01c-.06.65-.13,1.39-.22,2.22-.37,3.68-1.08,9.14-3.39,15.53-4.38,12.14-9.29,18.45-14.73,27.05-5.86,9.26-16.43,25.95-17.64,43.97-.49,7.32.15,21.14,11.18,38.46-105.56-23.37-134.35-54.53-139.62-79.99-4.05-19.62,4.71-30.63,12.56-76.41.34-2.01.65-3.94.91-5.82,35.39-17.4,69.17-31.81,111.59-41.6,6.59-1.52,13.39-2.93,20.44-4.21,2.85-.53,5.73-1.03,8.66-1.51.49-.08.97-.17,1.47-.24-.52,5.53-1.37,10.26-1.94,14.95-.04.3-.08.61-.11.91-.88,7.73-.89,15.51,2.67,26.84.82,2.6,1.76,5.17,2.7,7.76.36.98.72,1.96,1.08,2.95,2.96,8.32,5.58,17.25,4.38,29.12Z"/>
    <path class="cls-4" d="m507.28,573.83c-1.88.7-3.82,1.38-5.79,2.02-22.53,7.29-42.1,7.39-54.11,6.51,19.8-.72,38.1-4.72,53.76-11.22,2.11.87,4.15,1.78,6.15,2.69Z"/>
    <path class="cls-4" d="m653.14,616.9c-4.77,29.78-17.29,54.16-27.25,57.09-2.32.68-16.06,3.6-17.4,10.82-.02.06-.02.09-.02.13-1.1,6.37-19.08,21.95-74.38,56.28,2.72-26.1-3.38-41.88-9.52-51.5-7.44-11.67-16.64-16.95-19.54-31.66-1-5.08-.77-8.81,1.79-26.56.92-6.39,1.73-11.94,2.42-16.67.61-4.14,1.13-7.66,1.58-10.58.87-5.62,1.47-9.04,1.87-10.49.05-.16.09-.29.13-.41.92-2.57,2-5.05,3.19-7.45,1.02-2.09,2.15-4.12,3.33-6.07,1.12.6,2.22,1.2,3.31,1.81,2.72,1.49,5.36,3.01,7.97,4.52,22.77,13.2,42.63,26.36,81.14,30.42,17.72,1.87,30.51.54,41.38.31Z"/>
    <path class="cls-7" d="m498.28,538.67c-1.05-3.66-1.73-6.97-2.17-9.77.66,3.35,1.39,6.6,2.17,9.77Z"/>
    <path class="cls-7" d="m509.83,572.85c-.84.34-1.69.66-2.55.98-1.88.7-3.82,1.38-5.79,2.02-22.53,7.29-42.1,7.39-54.11,6.51,19.8-.72,38.1-4.72,53.76-11.22,2.3-.95,4.53-1.96,6.71-3.01.66,1.62,1.31,3.2,1.99,4.73Z"/>
    <path class="cls-7" d="m523.91,599.96c-4.04,1.42-8.41,2.87-13.09,4.3.87-5.62,1.47-9.04,1.87-10.49.05-.16.09-.29.13-.41.92-2.57,2-5.05,3.19-7.45.43.83.86,1.66,1.28,2.45,2.37,4.47,4.63,8.35,6.62,11.6Z"/>
    <path class="cls-7" d="m500.51,246.79c-10.6-14.49-35.31-43.66-72.65-47.2-59.69-5.66-114.94,59.14-122.29,113.85-2.91,21.64,1.32,44.42,4.92,63.84,5.17,27.84,13.29,50.23,19.97,65.81,2.33,4.3,5.31,9.42,9.08,15.06,0,0,0,0,0,0h0c1.97,15.16,3.36,31.42,3.88,48.69.04,1.25.07,2.48.1,3.71.16,6.82.16,13.46.04,19.95v.58c-.22,11.59-.83,22.65-1.73,33.12-.93,10.85-2.16,21.08-3.57,30.62-.71,4.81-1.47,9.44-2.26,13.88,1.13.28,2.29.57,3.47.85,4.23,1.01,8.76,2,13.56,2.93.75.15,1.5.29,2.25.43-.94-2.59-1.88-5.16-2.7-7.76-3.57-11.33-3.55-19.12-2.67-26.84.03-.3.07-.61.11-.91.57-4.7,1.42-9.42,1.94-14.95.57-6.07.74-13.11-.3-22.16-.25-2.12-.52-4.12-.84-6.02,15.43,7.51,43,17.75,77.85,15.39,31.68-2.15,55.18-13.76,67.39-20.94-1.5-7.56-2.65-15.58-3.34-24.02-.61-7.47-.8-14.67-.66-21.52v-.34s0,0,0,0c1.11-1.6,2.09-3.1,2.93-4.46,6.03-13.74,8.8-25.15,10.19-32.37,4.86-25.17,8.09-77.38,14.22-82.13.39-.3,3.6-2.67,6.64-6.82.25-.34.51-.72.78-1.15,14.91-23.31.66-72.19-26.34-109.12Z"/>
    <path class="cls-9" d="m495.06,478.45c-2.58,5.7-6.88,13.78-13.91,22.1-5.66,6.7-25.52,30.22-53.25,31.38-28.05,1.18-48.64-21.17-64.18-38.03-13.55-14.7-21.57-29.34-26.16-39.28,10.79,16.36,21.44,27.79,26.61,33.34,15.76,16.92,36.45,38.5,64.56,37.63,26.92-.84,45.81-21.8,54.6-31.56,4.47-4.96,8.35-10.14,11.74-15.57Z"/>
    <path class="cls-4" d="m351.97,562.46c-.52,5.53-1.37,10.26-1.94,14.95.59-5.09.71-10.02.47-14.71-.63-12.29-3.68-23.09-6.94-31.61-.09-.25-.2-.5-.29-.74.1.06.19.11.29.16,1.99,1.1,4.42,2.39,7.27,3.77.32,1.89.6,3.89.84,6.02,1.04,9.05.87,16.09.3,22.16Z"/>
    <path class="cls-4" d="m360.75,645.01c-.06.65-.13,1.39-.22,2.22-13.58-2.44-24-7.23-27.08-15.37-2.64-6.96,1.27-13.24,6.02-22.3,1.29-2.45,2.64-5.12,3.94-8.06,2.77-6.26,5.3-13.76,6.5-23.18-.88,7.73-.89,15.51,2.67,26.84.82,2.6,1.76,5.17,2.7,7.76.36.98.72,1.96,1.08,2.95,2.96,8.32,5.58,17.25,4.38,29.12Z"/>
    <path class="cls-4" d="m516.3,570.11c-2.08.95-4.24,1.86-6.46,2.74-.84.34-1.69.66-2.55.98-1.88.7-3.82,1.38-5.79,2.02-22.53,7.29-42.1,7.39-54.11,6.51,19.8-.72,38.1-4.72,53.76-11.22,2.3-.95,4.53-1.96,6.71-3.01,1.53-.74,3.04-1.51,4.5-2.29,1.33,1.59,2.66,3,3.95,4.28Z"/>
    <path class="cls-4" d="m509.23,614.84c.61-4.14,1.13-7.66,1.58-10.58.87-5.62,1.47-9.04,1.87-10.49.05-.16.09-.29.13-.41.92-2.57,2-5.05,3.19-7.45,1.02-2.09,2.15-4.12,3.33-6.07.91-1.5,1.86-2.96,2.85-4.38,1.12.96,2.15,1.85,3.1,2.72,2.76,2.52,4.71,4.84,5.33,7.99.03.14.05.29.08.43,1.27,8.34-7.19,18.54-21.46,28.24Z"/>
    <path class="cls-3" d="m653.15,616.9c-4.77,29.78-17.3,54.17-27.25,57.09-2.32.69-16.06,3.6-17.4,10.81-.02.06-.02.09-.02.13-1.1,6.37-19.08,21.95-74.38,56.29,2.72-26.09-3.38-41.89-9.52-51.51-7.45-11.67-16.65-16.95-19.54-31.66-1.01-5.08-.77-8.81,1.79-26.56.93-6.39,1.73-11.94,2.42-16.66.61-4.15,1.13-7.66,1.58-10.59.88-5.62,1.47-9.04,1.88-10.49.05-.16.09-.3.13-.41.93-2.57,2-5.05,3.19-7.44,1.02-2.09,2.15-4.12,3.34-6.07.91-1.5,1.86-2.96,2.84-4.38,4.4-6.37,9.38-11.89,14.12-16.43-5.71,3.8-12.38,7.64-20.01,11.08-2.08.95-4.24,1.86-6.46,2.74-.84.34-1.69.66-2.55.98-1.88.7-3.81,1.38-5.79,2.02-22.53,7.29-42.1,7.39-54.11,6.51,19.81-.72,38.1-4.72,53.76-11.22,2.3-.95,4.53-1.95,6.71-3.02,1.53-.73,3.04-1.51,4.51-2.29,20.91-11.26,35.63-27.4,40.67-45.92,2.69-9.87,5.21-29.91-3.89-48.99-8.27-17.31-20.2-21.46-31.41-31.95-3.89-3.63-7.06-7.45-9.66-11.46-1.88-2.86-3.46-5.82-4.79-8.88,0,0,0-.02,0-.02-14.74-33.6-1.2-79.49-30.21-144.19-8.65-19.29-18-31.23-29.89-40.57-16.6-13.04-34.17-17.41-44.48-19.1-16.6,8.87-46.31,26.94-59.47,51.33-1.38,2.56-2.65,5.26-2.65,5.26-3.93,8.69-7.64,21.99-10.8,52.23-3.61,34.6-6.65,63.73-5.88,91.13.67,24.15,4.31,46.94,13.11,70.91,3.86,10.49,7.48,17.88,10.53,24.95,3.15,7.25,5.7,14.15,7.32,23.72.32,1.89.6,3.89.84,6.02,1.05,9.05.87,16.1.3,22.16-.52,5.54-1.37,10.26-1.94,14.95-.05.3-.08.61-.11.91-.89,7.72-.89,15.51,2.67,26.84.82,2.6,1.76,5.17,2.7,7.76.36.98.72,1.96,1.08,2.95,2.96,8.33,5.59,17.26,4.38,29.13-.06.65-.13,1.39-.22,2.23-.38,3.68-1.08,9.14-3.39,15.53-4.38,12.15-9.29,18.46-14.73,27.05-5.87,9.26-16.43,25.94-17.64,43.97-.49,7.33.14,21.14,11.17,38.46-105.56-23.36-134.35-54.53-139.61-79.99-4.05-19.61,4.7-30.63,12.56-76.41.34-2.01.65-3.94.91-5.82,5.83-40.35-5-49.55-2.43-88.79,4.76-72.38,43.85-74.94,54.49-149.35,8.35-58.35-15.38-61.6-2.69-117.8,4.56-20.14,19.07-84.35,74.58-113.06,20.33-10.52,39.92-13.03,52.94-13.53,27.95-11.44,49.57-11.07,63.77-8.78,78.65,12.71,130.78,116.79,139.87,197.2,3.2,28.3-.72,37.77-.99,63.57-.03,3.75,0,7.88.16,12.44v.06c.24,7.21.76,15.58,1.68,25.5,1.26,13.45,2.58,24.24,4.04,34.01,2.14,14.34,3.36,23.35,4.9,29.54,6.25,25.06,23.78,32.78,36.95,50.38,18.15,24.25,20.59,57.29,16.07,85.48Z"/>
  </g>
</svg>