<?xml version="1.0" encoding="UTF-8"?>
<svg id="Layer_1" data-name="Layer 1" xmlns="http://www.w3.org/2000/svg" xmlns:xlink="http://www.w3.org/1999/xlink" viewBox="0 0 98.99 98.99">
  <defs>
    <style>
      .cls-1 {
        fill: url(#linear-gradient-2);
      }

      .cls-1, .cls-2, .cls-3, .cls-4, .cls-5, .cls-6 {
        stroke-width: .24px;
      }

      .cls-1, .cls-2, .cls-3, .cls-4, .cls-5, .cls-6, .cls-7 {
        stroke: #000;
        stroke-miterlimit: 10;
      }

      .cls-2 {
        fill: url(#linear-gradient-4);
      }

      .cls-3 {
        fill: url(#linear-gradient-6);
      }

      .cls-4 {
        fill: url(#linear-gradient-5);
      }

      .cls-5 {
        fill: url(#linear-gradient-3);
      }

      .cls-6 {
        fill: url(#linear-gradient);
      }

      .cls-7 {
        stroke-width: .99px;
      }
    </style>
    <linearGradient id="linear-gradient" x1="71.2" y1="5.78" x2="70.49" y2="89.22" gradientUnits="userSpaceOnUse">
      <stop offset="0" stop-color="#9c95c0"/>
      <stop offset=".43" stop-color="#6c7097"/>
      <stop offset=".8" stop-color="#49557a"/>
      <stop offset="1" stop-color="#3c4b6f"/>
    </linearGradient>
    <linearGradient id="linear-gradient-2" x1="50.51" y1="6.07" x2="49.8" y2="89.52" xlink:href="#linear-gradient"/>
    <linearGradient id="linear-gradient-3" x1="29.96" y1="6.61" x2="29.24" y2="90.06" xlink:href="#linear-gradient"/>
    <linearGradient id="linear-gradient-4" x1="42.44" y1="6.72" x2="41.73" y2="90.17" xlink:href="#linear-gradient"/>
    <linearGradient id="linear-gradient-5" x1="49.6" y1="6.54" x2="48.88" y2="89.99" xlink:href="#linear-gradient"/>
    <linearGradient id="linear-gradient-6" x1="23.09" y1="6.31" x2="22.37" y2="89.76" xlink:href="#linear-gradient"/>
  </defs>
  <rect class="cls-7" x=".49" y=".49" width="98" height="98"/>
  <g>
    <polygon class="cls-6" points="77.23 5.11 64.58 19.34 64.58 47.79 77.23 61.14 77.23 5.11"/>
    <polygon class="cls-1" points="77.23 62.48 23.12 5.59 23.12 29.29 77.23 86.19 77.23 62.48"/>
    <polygon class="cls-5" points="23.12 30.66 35.94 44.23 35.94 82.16 23.12 82.16 23.12 30.66"/>
    <polygon class="cls-2" points="37.09 72.68 37.09 82.16 46.59 82.16 37.09 72.68"/>
    <polygon class="cls-4" points="37.09 83.11 60.8 83.11 56.49 91.41 37.09 91.41 37.09 83.11"/>
    <polygon class="cls-3" points="36.02 83.23 8.77 83.23 13.72 91.52 36.02 91.52 36.02 83.23"/>
  </g>
</svg>